<?xml version="1.0" encoding="UTF-8" standalone="no"?>
<svg width="67px" height="74px" viewBox="0 0 67 74" version="1.1" xmlns="http://www.w3.org/2000/svg" xmlns:xlink="http://www.w3.org/1999/xlink" xmlns:sketch="http://www.bohemiancoding.com/sketch/ns">
    <!-- Generator: Sketch 3.4.4 (17249) - http://www.bohemiancoding.com/sketch -->
    <title>chair</title>
    <desc>Created with Sketch.</desc>
    <defs></defs>
    <g id="Page-1" stroke="none" stroke-width="1" fill="none" fill-rule="evenodd" sketch:type="MSPage">
        <g id="Desktop-HD" sketch:type="MSArtboardGroup" transform="translate(-419.000000, -1310.000000)" fill="#000000">
            <g id="Услуги" sketch:type="MSLayerGroup" transform="translate(63.000000, 1130.000000)">
                <g id="Парикмахерские-+-Oval-1-+-Удаление-+-Oval-1-Copy-+-Премиум-+-Oval-1-Copy-2" transform="translate(0.000000, 177.000000)" sketch:type="MSShapeGroup">
                    <g id="Премиум-+-Oval-1-Copy-2" transform="translate(353.000000, 3.000000)">
                        <g id="chair" transform="translate(3.000000, 0.000000)">
                            <g id="Group">
                                <g id="Shape">
                                    <path d="M30.1375926,25.5423333 C30.3857407,25.7766667 30.6959259,25.9 31.0185185,25.9 C31.3411111,25.9 31.6512963,25.7766667 31.8994444,25.5423333 L33.5,23.939 L35.1005556,25.53 C35.3487037,25.7766667 35.6588889,25.9 35.9814815,25.9 C36.3040741,25.9 36.6142593,25.7766667 36.8624074,25.5423333 C37.3462963,25.0613333 37.3462963,24.2843333 36.8624074,23.8033333 L35.2494444,22.2 L36.85,20.609 C37.3338889,20.128 37.3338889,19.351 36.85,18.87 C36.3661111,18.389 35.5844444,18.389 35.1005556,18.87 L33.5,20.461 L31.8994444,18.87 C31.4155556,18.389 30.6338889,18.389 30.15,18.87 C29.6661111,19.351 29.6661111,20.128 30.15,20.609 L31.7381481,22.2 L30.1375926,23.791 C29.6537037,24.272 29.6537037,25.0613333 30.1375926,25.5423333 L30.1375926,25.5423333 Z"></path>
                                    <path d="M20.2116667,13.209 C20.4598148,13.4433333 20.77,13.5666667 21.0925926,13.5666667 C21.4151852,13.5666667 21.7253704,13.4433333 21.9735185,13.209 L23.5740741,11.6056667 L25.1746296,13.1966667 C25.4227778,13.4433333 25.732963,13.5666667 26.0555556,13.5666667 C26.3781481,13.5666667 26.6883333,13.4433333 26.9364815,13.209 C27.4203704,12.728 27.4203704,11.951 26.9364815,11.47 L25.3235185,9.86666667 L26.9240741,8.27566667 C27.407963,7.79466667 27.407963,7.01766667 26.9240741,6.53666667 C26.4401852,6.05566667 25.6585185,6.05566667 25.1746296,6.53666667 L23.5740741,8.12766667 L21.9611111,6.52433333 C21.4772222,6.04333333 20.6955556,6.04333333 20.2116667,6.52433333 C19.7277778,7.00533333 19.7277778,7.78233333 20.2116667,8.26333333 L21.8122222,9.86666667 L20.2116667,11.4576667 C19.7277778,11.9386667 19.7277778,12.728 20.2116667,13.209 L20.2116667,13.209 Z"></path>
                                    <path d="M40.0635185,13.209 C40.3116667,13.4433333 40.6218519,13.5666667 40.9444444,13.5666667 C41.267037,13.5666667 41.5772222,13.4433333 41.8253704,13.209 L43.4259259,11.6056667 L45.0264815,13.1966667 C45.2746296,13.4433333 45.5848148,13.5666667 45.9074074,13.5666667 C46.23,13.5666667 46.5401852,13.4433333 46.7883333,13.209 C47.2722222,12.728 47.2722222,11.951 46.7883333,11.47 L45.1753704,9.86666667 L46.7759259,8.27566667 C47.2598148,7.79466667 47.2598148,7.01766667 46.7759259,6.53666667 C46.292037,6.05566667 45.5103704,6.05566667 45.0264815,6.53666667 L43.4259259,8.12766667 L41.812963,6.52433333 C41.3290741,6.04333333 40.5474074,6.04333333 40.0635185,6.52433333 C39.5796296,7.00533333 39.5796296,7.78233333 40.0635185,8.26333333 L41.6640741,9.86666667 L40.0635185,11.4576667 C39.5796296,11.9386667 39.5796296,12.728 40.0635185,13.209 L40.0635185,13.209 Z"></path>
                                    <path d="M20.2116667,35.409 C20.4598148,35.6433333 20.77,35.7666667 21.0925926,35.7666667 C21.4151852,35.7666667 21.7253704,35.6433333 21.9735185,35.409 L23.5740741,33.8056667 L25.1746296,35.3966667 C25.4227778,35.6433333 25.732963,35.7666667 26.0555556,35.7666667 C26.3781481,35.7666667 26.6883333,35.6433333 26.9364815,35.409 C27.4203704,34.928 27.4203704,34.151 26.9364815,33.67 L25.3235185,32.0666667 L26.9240741,30.4756667 C27.407963,29.9946667 27.407963,29.2176667 26.9240741,28.7366667 C26.4401852,28.2556667 25.6585185,28.2556667 25.1746296,28.7366667 L23.5740741,30.3276667 L21.9735185,28.7366667 C21.4896296,28.2556667 20.707963,28.2556667 20.2240741,28.7366667 C19.7401852,29.2176667 19.7401852,29.9946667 20.2240741,30.4756667 L21.8122222,32.0666667 L20.2116667,33.6576667 C19.7277778,34.1386667 19.7277778,34.928 20.2116667,35.409 L20.2116667,35.409 Z"></path>
                                    <path d="M40.0635185,35.409 C40.3116667,35.6433333 40.6218519,35.7666667 40.9444444,35.7666667 C41.267037,35.7666667 41.5772222,35.6433333 41.8253704,35.409 L43.4259259,33.8056667 L45.0264815,35.3966667 C45.2746296,35.6433333 45.5848148,35.7666667 45.9074074,35.7666667 C46.23,35.7666667 46.5401852,35.6433333 46.7883333,35.409 C47.2722222,34.928 47.2722222,34.151 46.7883333,33.67 L45.1753704,32.0666667 L46.7759259,30.4756667 C47.2598148,29.9946667 47.2598148,29.2176667 46.7759259,28.7366667 C46.292037,28.2556667 45.5103704,28.2556667 45.0264815,28.7366667 L43.4259259,30.3276667 L41.8253704,28.7366667 C41.3414815,28.2556667 40.5598148,28.2556667 40.0759259,28.7366667 C39.592037,29.2176667 39.592037,29.9946667 40.0759259,30.4756667 L41.6640741,32.0666667 L40.0635185,33.6576667 C39.5796296,34.1386667 39.5796296,34.928 40.0635185,35.409 L40.0635185,35.409 Z"></path>
                                    <path d="M66.5533333,46.065 C66.4912963,45.7936667 66.4416667,45.658 66.3548148,45.5346667 L59.1461111,34.669 C58.6001852,33.8056667 57.6696296,33.3 56.6398148,33.3 L53.935,33.3 L55.2998148,7.4 C55.2998148,3.31766667 51.9622222,0 47.8553704,0 L19.3183333,0 C15.2114815,0 11.8738889,3.31766667 11.8738889,7.46166667 L13.1146296,33.3 L10.3477778,33.3 C9.33037037,33.3 8.38740741,33.8056667 7.85388889,34.6443333 L0.632777778,45.5346667 C0.558333333,45.6456667 0.496296296,45.806 0.459074074,45.9416667 C0.409444444,46.25 0.372222222,46.435 0.335,46.62 C0.0372222222,47.545 -0.0744444444,48.3836667 0.062037037,49.2346667 L3.21351852,68.043 C3.31277778,68.635 3.83388889,69.0666667 4.44185185,69.0666667 L8.68518519,69.0666667 L13.2511111,69.0666667 C13.8218519,71.8786667 16.3281481,74 19.3307407,74 L47.8677778,74 C50.857963,74 53.3642593,71.8786667 53.9474074,69.0666667 L58.3148148,69.0666667 L62.5581481,69.0666667 C63.1661111,69.0666667 63.6872222,68.635 63.7864815,68.0306667 L66.937963,49.2223333 C67.0744444,48.3836667 66.9627778,47.5573333 66.665,46.805 C66.602963,46.435 66.5781481,46.25 66.5533333,46.065 Z M57.0616667,36.0133333 L62.2231481,43.7956667 C62.1983333,43.7956667 62.1735185,43.808 62.1362963,43.808 C61.9253704,43.8203333 61.7144444,43.8573333 61.5035185,43.8943333 C61.3794444,43.919 61.242963,43.919 61.1188889,43.956 C60.7962963,44.0423333 60.4737037,44.1533333 60.1759259,44.3013333 C60.1014815,44.3383333 60.027037,44.3876667 59.9525926,44.437 C59.7168519,44.5603333 59.4935185,44.696 59.2825926,44.8563333 C59.2081481,44.9056667 59.1461111,44.9796667 59.0716667,45.0413333 C58.8607407,45.214 58.6622222,45.399 58.4761111,45.6086667 C58.4637037,45.621 58.4512963,45.6333333 58.4388889,45.6456667 L53.7737037,36.4326667 L53.8109259,35.7666667 L56.6522222,35.7666667 C56.8135185,35.7666667 56.9624074,35.853 57.0616667,36.0133333 L57.0616667,36.0133333 Z M15.7077778,45.6333333 L51.2798148,45.6333333 L56.4537037,57.9666667 L10.5462963,57.9666667 L15.7077778,45.6333333 L15.7077778,45.6333333 Z M19.3307407,2.46666667 L47.8677778,2.46666667 C50.6098148,2.46666667 52.8307407,4.67433333 52.8307407,7.33833333 L51.3418519,35.372 L51.2798148,36.6053333 L51.2798148,36.6053333 L50.9324074,43.1666667 L16.0675926,43.1666667 L15.7574074,36.5313333 L15.7574074,36.5313333 L15.6581481,34.521 L15.6581481,34.521 L14.3677778,7.4 C14.3677778,4.67433333 16.5887037,2.46666667 19.3307407,2.46666667 L19.3307407,2.46666667 Z M9.93833333,35.9886667 C10.0251852,35.853 10.1864815,35.7666667 10.3477778,35.7666667 L13.2262963,35.7666667 L13.2511111,36.2106667 L13.2511111,36.3216667 L8.5487037,45.6086667 C8.5362963,45.5963333 8.52388889,45.584 8.49907407,45.5716667 C8.32537037,45.3743333 8.13925926,45.2016667 7.94074074,45.0413333 C7.85388889,44.9673333 7.77944444,44.8933333 7.69259259,44.8193333 C7.51888889,44.696 7.34518519,44.5973333 7.15907407,44.4863333 C6.88611111,44.326 6.60074074,44.1903333 6.30296296,44.0916667 C6.15407407,44.0423333 6.01759259,43.9683333 5.8687037,43.9313333 C5.70740741,43.8943333 5.54611111,43.882 5.38481481,43.8573333 C5.1987037,43.8326667 5.025,43.7956667 4.83888889,43.7833333 C4.80166667,43.7833333 4.77685185,43.771 4.75203704,43.771 L9.93833333,35.9886667 L9.93833333,35.9886667 Z M2.5062963,48.8276667 C2.43185185,48.359 2.5062963,47.8903333 2.70481481,47.4956667 C2.70481481,47.4956667 2.70481481,47.4833333 2.71722222,47.4833333 C2.79166667,47.3353333 2.89092593,47.1996667 2.99018519,47.0763333 C3.015,47.0516667 3.02740741,47.027 3.05222222,47.0146667 C3.13907407,46.916 3.22592593,46.8296667 3.32518519,46.7556667 C3.36240741,46.731 3.39962963,46.694 3.43685185,46.6693333 C3.5237037,46.6076667 3.63537037,46.546 3.73462963,46.4966667 C3.78425926,46.472 3.82148148,46.4473333 3.87111111,46.435 C4.02,46.3733333 4.1812963,46.324 4.34259259,46.2993333 C4.5162963,46.2746667 4.67759259,46.2623333 4.83888889,46.2746667 C4.88851852,46.2746667 4.93814815,46.287 4.98777778,46.2993333 C5.09944444,46.3116667 5.1987037,46.324 5.29796296,46.3486667 C6.21611111,46.5953333 7.01018519,47.4093333 7.37,48.4823333 C7.38240741,48.507 7.39481481,48.5316667 7.40722222,48.5563333 C7.41962963,48.5686667 7.43203704,48.5933333 7.44444444,48.618 L7.44444444,59.2 L7.44444444,66.6 L5.48407407,66.6 L2.5062963,48.8276667 L2.5062963,48.8276667 Z M9.92592593,66.6 L9.92592593,60.4333333 L57.0740741,60.4333333 L57.0740741,66.6 L9.92592593,66.6 L9.92592593,66.6 Z M64.4812963,48.8276667 L61.5035185,66.6 L59.5555556,66.6 L59.5555556,59.2 L59.5555556,48.618 C59.567963,48.5933333 59.5803704,48.5563333 59.5927778,48.5316667 C59.6051852,48.507 59.6175926,48.4946667 59.63,48.47 C59.9277778,47.5696667 60.5357407,46.8543333 61.2677778,46.509 C61.2801852,46.509 61.2925926,46.4966667 61.305,46.4966667 C61.4414815,46.435 61.577963,46.3856667 61.7144444,46.3486667 C61.7888889,46.3363333 61.8509259,46.324 61.9253704,46.3116667 C62.0122222,46.2993333 62.0990741,46.2746667 62.1859259,46.2746667 C62.3472222,46.2623333 62.5085185,46.2746667 62.6822222,46.2993333 L62.707037,46.2993333 C62.8683333,46.324 63.0172222,46.3733333 63.1537037,46.4226667 C63.2033333,46.4473333 63.252963,46.472 63.2901852,46.4966667 C63.3894444,46.546 63.4887037,46.5953333 63.5755556,46.657 C63.6127778,46.6816667 63.65,46.7186667 63.6996296,46.7433333 C63.7988889,46.8173333 63.8857407,46.9036667 63.9725926,47.0023333 C63.9974074,47.027 64.0098148,47.0516667 64.0346296,47.0763333 C64.1338889,47.1996667 64.2331481,47.3353333 64.3075926,47.4833333 L64.32,47.4956667 C64.4812963,47.8903333 64.5681481,48.359 64.4812963,48.8276667 L64.4812963,48.8276667 Z"></path>
                                </g>
                            </g>
                        </g>
                    </g>
                </g>
            </g>
        </g>
    </g>
</svg>