<?xml version="1.0" encoding="UTF-8" standalone="no"?>
<svg width="32px" height="76px" viewBox="0 0 32 76" version="1.1" xmlns="http://www.w3.org/2000/svg" xmlns:xlink="http://www.w3.org/1999/xlink" xmlns:sketch="http://www.bohemiancoding.com/sketch/ns">
    <!-- Generator: Sketch 3.4.4 (17249) - http://www.bohemiancoding.com/sketch -->
    <title>shaver</title>
    <desc>Created with Sketch.</desc>
    <defs></defs>
    <g id="Page-1" stroke="none" stroke-width="1" fill="none" fill-rule="evenodd" sketch:type="MSPage">
        <g id="Desktop-HD" sketch:type="MSArtboardGroup" transform="translate(-276.000000, -1308.000000)" fill="#000000">
            <g id="Услуги" sketch:type="MSLayerGroup" transform="translate(63.000000, 1130.000000)">
                <g id="Парикмахерские-+-Oval-1-+-Удаление-+-Oval-1-Copy-+-Премиум-+-Oval-1-Copy-2" transform="translate(0.000000, 177.000000)" sketch:type="MSShapeGroup">
                    <g id="Удаление-+-Oval-1-Copy" transform="translate(190.000000, 1.000000)">
                        <g id="shaver" transform="translate(23.000000, 0.000000)">
                            <g id="Group">
                                <g>
                                    <rect id="Rectangle-path" x="5.32715789" y="1.71247826" width="1.68421053" height="1.52413043"></rect>
                                    <rect id="Rectangle-path" x="7.74821053" y="1.71247826" width="1.68421053" height="1.52413043"></rect>
                                    <rect id="Rectangle-path" x="10.1692632" y="1.71247826" width="1.68421053" height="1.52413043"></rect>
                                    <rect id="Rectangle-path" x="12.5903158" y="1.71247826" width="1.68421053" height="1.52413043"></rect>
                                    <rect id="Rectangle-path" x="15.0113684" y="1.71247826" width="1.68421053" height="1.52413043"></rect>
                                    <rect id="Rectangle-path" x="17.4324211" y="1.71247826" width="1.68421053" height="1.52413043"></rect>
                                    <rect id="Rectangle-path" x="19.8534737" y="1.71247826" width="1.68421053" height="1.52413043"></rect>
                                    <rect id="Rectangle-path" x="22.2745263" y="1.71247826" width="1.68421053" height="1.52413043"></rect>
                                    <rect id="Rectangle-path" x="24.6955789" y="1.71247826" width="1.68421053" height="1.52413043"></rect>
                                    <path d="M1.60842105,11.8105652 C0.804210526,11.8105652 0.242526316,10.972087 0.242526316,9.77095652 C0.242526316,8.56982609 0.804210526,7.73052174 1.60842105,7.73052174 C2.42694737,7.73052174 2.976,8.55082609 2.976,9.77095652 C2.976,10.991087 2.42694737,11.8105652 1.60842105,11.8105652 L1.60842105,11.8105652 Z" id="Shape"></path>
                                    <path d="M30.3907368,11.8105652 C29.5856842,11.8105652 29.024,10.972087 29.024,9.77095652 C29.024,8.56982609 29.5856842,7.73052174 30.3907368,7.73052174 C31.2084211,7.73052174 31.7574737,8.55082609 31.7574737,9.77095652 C31.7574737,10.991087 31.2084211,11.8105652 30.3907368,11.8105652 L30.3907368,11.8105652 Z" id="Shape"></path>
                                    <path d="M18.8624777,73.9606205 C17.7374784,73.3580412 17.8496552,74.0404737 16.1287617,73.9606205 C16.0063055,73.9549383 15.550647,73.9606205 15.4223156,73.9606205 C13.5368419,73.9606205 12.2845978,73.3354919 11.1384926,73.9606205 C10.1835452,74.4798669 9.26568421,69.6618313 8.03452632,69.6618313 L8.03452632,67.967716 C8.83873684,67.967716 9.52926316,67.5924694 10.4042105,67.115576 C11.6101053,66.4591063 13.1107368,65.6416957 15.4223158,65.6416957 C17.7751579,65.6416957 19.3381053,66.4802827 20.5953684,67.1519995 C21.4458947,67.6085635 22.1178947,67.967716 22.8092632,67.967716 L22.8092632,69.6618313 C21.6976842,69.6618313 19.8359514,74.481561 18.8624777,73.9606205 Z" id="Shape"></path>
                                    <path d="M7.70778947,37.3738261 C7.32210526,36.385 6.95747368,35.4515217 6.57936842,34.8013913 C5.75410526,33.1847391 4.11536842,32.0554783 4.09936842,32.0447391 C4.09936842,32.0447391 4.864,26.3934783 1.74315789,23.9730435 L1.49052632,23.7772609 L1.43578947,23.4666522 C1.15115789,21.859913 1.22442105,21.5815217 1.47368421,21.289913 L1.72631579,20.9958261 L2.46989474,20.9883913 L2.73852632,21.2287826 C4.71915789,23.0883043 7.52757895,26.9205217 9.01726316,30.9443913 C9.47452632,32.1777391 9.89305263,33.4350435 10.2981053,34.6510435 C11.8442105,39.2944783 13.3044211,42.189913 16.0008421,42.189913 C18.6981053,42.189913 20.1583158,39.2953043 21.7035789,34.6518696 C22.1077895,33.4350435 22.528,32.176913 22.9844211,30.9435652 C24.5018947,26.8436957 27.3490526,22.9908261 29.3524211,21.1453478 L29.5957895,20.9214783 L30.4362105,20.9198261 L30.6745263,21.3568261 C30.9128421,21.7963043 30.6661053,22.1581304 30.5473684,22.3324348 C29.1107368,24.4348261 28.5162105,25.973 28.2694737,26.8924348 C27.7103158,28.984087 27.9014737,32.043913 27.9014737,32.043913 C27.8846316,32.0554783 26.2475789,33.1847391 25.4442105,34.760913 C25.0433684,35.4506957 24.6795789,36.385 24.2938947,37.3738261 C22.9583158,40.8012609 21.1267371,44.0236869 16.0008424,44.0236869 C10.8749477,44.0236869 9.04421053,40.8004348 7.70778947,37.3738261 Z" id="Shape"></path>
                                    <path d="M15.3355789,15.4626957 C6.07747368,15.4626957 2.50947368,17.1528696 2.47494737,17.1702174 L2.47494739,10.3110234 C2.62905265,10.2341973 5.85510877,11.5826184 15.6024772,11.5826184 C25.2925825,11.5826184 29.4245686,9.68131751 29.6409897,9.75649142 L29.8888421,17.2115217 C29.8374737,17.1941739 24.704,15.4626957 15.3355789,15.4626957 Z" id="Shape"></path>
                                    <path d="M16,38.7633043 C12.3696842,38.7633043 11.5326316,30.6883043 11.4021053,29.07 L11.3726316,28.7023913 L11.632,28.4347391 C11.8627368,28.1968261 12.8589474,27.4219565 15.9823158,27.4219565 C19.0938947,27.4219565 20.1145263,28.186087 20.3528421,28.4198696 L20.6273684,28.6891739 L20.5970526,29.0691739 C20.4665263,30.6883043 19.6294737,38.7633043 16,38.7633043 L16,38.7633043 Z" id="Shape"></path>
                                    <path d="M5.46105263,11.7998261 C4.7043914,11.7998261 4.04081372,11.3989222 3.67999878,10.802081 C3.49710277,10.4995439 2.53052632,10.5698529 2.53052632,10.1933215 C2.50947369,10.0289302 2.864,6.04117391 2.53052632,3.70334783 L2.39663158,2.76243478 L29.9157895,2.76243478 L29.7271579,3.74217391 C29.2943158,5.98995652 29.4250444,9.61266656 29.3509391,10.0579274 C29.3155707,11.1475361 27.6210526,11.7998261 26.5027368,11.7998261 L5.46105263,11.7998261 Z M4.33347368,4.41543478 C5.07705263,9.62969565 5.07705263,9.70156522 5.07705263,9.77095652 C5.07705263,9.97913043 5.24968421,10.1484783 5.46189474,10.1484783 L26.5027368,10.1484783 C26.7149474,10.1484783 26.8875789,9.97913043 26.8875789,9.77095652 C26.8875789,9.67430435 26.8875789,9.60326087 27.8846316,4.41543478 L4.33347368,4.41543478 L4.33347368,4.41543478 Z" id="Shape"></path>
                                    <path d="M31.2328421,21.346913 C31.2328421,18.8364348 30.2442105,4.0156087 30.2021053,3.39191304 L30.1498947,2.47826087 L28.6315789,2.47826087 L28.6315789,1.59186957 C28.6315789,1.13586957 28.2551579,0.765782609 27.7894737,0.765782609 C27.3237895,0.765782609 26.9473684,1.13586957 26.9473684,1.59186957 L26.9473684,2.47826087 L4.21052632,2.47826087 L4.21052632,1.59186957 C4.21052632,1.13586957 3.83326316,0.765782609 3.36842105,0.765782609 C2.90273684,0.765782609 2.52631579,1.13586957 2.52631579,1.59186957 L2.52631579,2.47826087 L1.98231579,2.47826087 L1.92673684,3.38778261 C1.87873684,4.03130435 0.768,19.2536087 0.768,21.2766957 C0.768,22.8702174 1.60842105,23.873913 2.34947368,24.7272609 C3.12168421,25.6177826 3.85178947,26.476913 3.85178947,28.1365217 C3.85178947,30.4768261 3.32463158,38.4047826 2.93978947,44.1882174 C2.70231579,47.7585652 2.56757895,49.8039565 2.56757895,50.2054348 C2.56757895,51.993087 3.91578947,58.2796087 5.45263158,63.6929565 C8.71915789,75.2011739 10.4901053,75.173913 11.2454737,75.173913 L19.5974737,75.173913 C23.3667368,75.173913 28.336,52.7687826 28.3865263,50.6713478 C28.3831579,50.4813478 28.096,31.7465217 28.096,28.139 C28.096,26.4405652 28.8690526,25.5442609 29.6867368,24.5876522 C30.4463158,23.6987826 31.2328421,22.7859565 31.2328421,21.346913 L31.2328421,21.346913 Z M28.3966316,23.5335652 C27.5124211,24.5678261 26.4126316,25.8548696 26.4126316,28.1538696 C26.4126316,31.7737826 26.7006316,50.5366957 26.7031579,50.6928261 C26.6147368,54.3936957 21.5141053,72.4354348 19.5258947,73.5812174 L11.3136842,73.5911304 C9.25810526,72.7782609 4.25263158,54.112 4.25263158,50.2087391 C4.25263158,49.8427826 4.42357895,47.2753043 4.62147368,44.3038696 C5.00715789,38.4981304 5.53684211,30.5486957 5.53684211,28.1538696 C5.53684211,25.8862609 4.48084211,24.6694348 3.632,23.6921739 C2.94821053,22.9032609 2.45305263,22.1903478 2.45305263,21.2048261 C2.45305263,19.494 3.32042105,7.43478261 3.552,4.13043478 L28.5743158,4.13043478 C28.7823158,7.43478261 29.5494737,19.0710435 29.5494737,21.2048261 C29.5486316,22.0044783 29.1326316,22.6727826 28.3966316,23.5335652 L28.3966316,23.5335652 Z" id="Shape"></path>
                                </g>
                            </g>
                        </g>
                    </g>
                </g>
            </g>
        </g>
    </g>
</svg>