<?xml version="1.0" encoding="UTF-8" standalone="no"?>
<svg width="52px" height="75px" viewBox="0 0 52 75" version="1.1" xmlns="http://www.w3.org/2000/svg" xmlns:xlink="http://www.w3.org/1999/xlink" xmlns:sketch="http://www.bohemiancoding.com/sketch/ns">
    <!-- Generator: Sketch 3.4.4 (17249) - http://www.bohemiancoding.com/sketch -->
    <title>hair</title>
    <desc>Created with Sketch.</desc>
    <defs></defs>
    <g id="Page-1" stroke="none" stroke-width="1" fill="none" fill-rule="evenodd" sketch:type="MSPage">
        <g id="Desktop-HD" sketch:type="MSArtboardGroup" transform="translate(-105.000000, -1314.000000)" fill="#000000">
            <g id="Услуги" sketch:type="MSLayerGroup" transform="translate(63.000000, 1130.000000)">
                <g id="Парикмахерские-+-Oval-1-+-Удаление-+-Oval-1-Copy-+-Премиум-+-Oval-1-Copy-2" transform="translate(0.000000, 177.000000)" sketch:type="MSShapeGroup">
                    <g id="Парикмахерские-+-Oval-1">
                        <g id="hair" transform="translate(42.000000, 7.000000)">
                            <g id="Group">
                                <path d="M8.86953086,29.2325 C8.86953086,29.2325 9.35441481,28.2225 10.592079,27.1375 C11.2038173,26.5875 12.0083407,26.0241667 13.0139951,25.6141667 C14.0104691,25.2091667 15.2589827,24.9658333 16.5358716,25.205 L17.0090716,25.3125 L17.174316,25.3558333 L17.2644494,25.39 L17.4430469,25.4575 L18.1515951,25.7441667 C18.6206222,25.9333333 19.0754617,26.1416667 19.5136099,26.3466667 C20.3874025,26.7691667 21.1902568,27.1725 21.862084,27.6258333 C23.2174222,28.4733333 24.0136,29.2333333 24.0136,29.2325 C24.0136,29.2325 22.9027901,29.235 21.3938914,28.9508333 C20.6436148,28.815 19.7406123,28.6483333 18.8134074,28.3991667 C18.3460494,28.2766667 17.8661728,28.1433333 17.3862963,27.9875 L16.6610568,27.7508333 L16.4799556,27.6883333 L16.3898222,27.6566667 C16.4632642,27.6833333 16.368958,27.6575 16.3672889,27.6591667 L16.0868741,27.6066667 C15.7146568,27.5208333 15.3140642,27.5175 14.9059605,27.5233333 C14.4961877,27.5441667 14.0764,27.6033333 13.6607852,27.6766667 C12.8270519,27.8408333 12.0200247,28.1025 11.3089728,28.3375 C9.84514074,28.8741667 8.86953086,29.2325 8.86953086,29.2325 L8.86953086,29.2325 Z" id="Shape"></path>
                                <path d="M42.8297679,29.2541667 C42.8297679,29.2541667 41.8533235,28.8925 40.3911605,28.3508333 C40.0423111,28.2391667 39.6625827,28.1183333 39.2611556,27.9916667 C38.8647358,27.8758333 38.4541284,27.7733333 38.0401827,27.6841667 C37.6212296,27.6075 37.2022765,27.5475 36.7933383,27.5266667 C36.3860691,27.52 35.9829728,27.5216667 35.6132593,27.6075 L35.3311753,27.66 C35.3311753,27.6575 35.2352,27.685 35.3119802,27.6558333 L35.2226815,27.6883333 L35.0407457,27.7516667 L34.3155062,27.99 C33.8347951,28.1475 33.3532494,28.2808333 32.8883951,28.405 C31.9603556,28.6566667 31.0565185,28.8258333 30.306242,28.9625 C28.7965086,29.2533333 27.6848642,29.2541667 27.6848642,29.2541667 C27.6848642,29.255 28.4802074,28.4933333 29.8347111,27.64 C30.5073728,27.1833333 31.3093926,26.78 32.1831852,26.355 C32.6196642,26.1475 33.0736691,25.9383333 33.5443654,25.7475 L34.2537481,25.4608333 L34.4348494,25.3916667 L34.522479,25.3575 L34.6910617,25.3141667 L35.1625926,25.2058333 C36.4419852,24.9675 37.6930025,25.2141667 38.688642,25.6233333 C39.6942963,26.0366667 40.4979852,26.6016667 41.1088889,27.1541667 C42.3457185,28.2425 42.8297679,29.2541667 42.8297679,29.2541667 L42.8297679,29.2541667 Z" id="Shape"></path>
                                <path d="M25.9272642,58.6308333 C24.1963704,58.6308333 22.5748049,57.9616667 21.3563358,56.7441667 C21.2011062,56.5891667 21.2011062,56.3391667 21.3563358,56.1841667 C21.5115654,56.0291667 21.7619358,56.0291667 21.9171654,56.1841667 C22.9962617,57.2616667 24.4158617,57.8325 25.9714963,57.8375 C27.5087704,57.8258333 28.9617531,57.2158333 30.0600444,56.1191667 C30.2152741,55.9641667 30.4648099,55.9641667 30.6200395,56.1191667 C30.7752691,56.2741667 30.7752691,56.5241667 30.6200395,56.6791667 C29.3740296,57.9233333 27.7249235,58.6166667 25.9773383,58.6291667 C25.9606469,58.6308333 25.9439556,58.6308333 25.9272642,58.6308333 L25.9272642,58.6308333 Z" id="Shape"></path>
                                <path d="M51.2397086,32.595 C51.0577728,30.13 49.5163259,28.7991667 47.8905877,28.1283333 C48.0458173,24.7425 47.8463556,20.6883333 46.856558,16.8816667 C46.309916,14.78 45.431116,12.7791667 44.3470123,10.9858333 C41.4110025,5.035 35.536479,0.0808333333 25.8488148,0.0808333333 C20.4725284,0.0808333333 16.2612988,1.62 13.050716,3.99333333 C8.90541728,5.81083333 5.32011358,11.0058333 4.0248642,17.1708333 C3.22284444,20.99 3.1485679,25.0091667 3.37890864,28.34 C2.78219259,28.6266667 2.20049877,29.0025 1.71478025,29.4958333 C0.85851358,30.3666667 0.434553086,31.4375 0.456251852,32.6791667 C0.473777778,33.63 1.21904691,39.4125 1.8875358,40.6791667 C2.49510123,41.8316667 3.06260741,43.1025 4.33115062,43.1025 C4.60906173,43.1025 5.33763951,42.4341667 5.57382222,42.3891667 C5.67647407,42.9208333 5.78997531,43.5491667 5.91349136,44.2383333 C6.09041975,45.2241667 6.26901728,46.195 6.45095309,47.1333333 C6.48266667,50.5625 8.16515556,55.56 8.16515556,57.0566667 C8.16515556,61.4466667 15.6128395,74.2116667 25.2454222,74.2116667 C34.8780049,74.2116667 43.0500938,61.4466667 43.0500938,57.0566667 C43.0500938,55.5425 45.0029827,50.5075 45.2333235,46.9875 C45.4027407,46.1291667 45.5729926,45.2383333 45.7449136,44.3225 C45.8917975,43.5408333 46.0211556,42.84 46.1396642,42.27 C46.3816889,42.2991667 47.0885679,42.815 47.366479,42.7975 C48.9997284,42.6966667 49.7700346,41.1933333 49.9770074,40.5225 C50.315842,39.4225 51.3265037,33.7725 51.2397086,32.595 L51.2397086,32.595 Z M33.1679753,61.2675 C32.1606519,61.4925 30.9955951,61.6183333 29.0059852,60.065 C27.8793185,59.1841667 22.6524198,59.2483333 21.4306123,60.1983333 C19.4293185,61.7541667 18.4053037,61.4891667 17.4271901,61.2466667 C15.8573679,60.8591667 14.592163,55.4208333 13.4479704,52.4308333 C14.8500444,52.8033333 17.0157481,53.2841667 19.0938222,53.4208333 C21.2778864,54.5966667 23.6947951,55.1908333 26.115042,55.1908333 C28.5302815,55.1908333 30.9430173,54.5983333 33.1237432,53.4275 C34.9873333,53.3025 36.9468988,52.8525 38.3631605,52.4566667 C36.8467506,56.1133333 35.652484,60.7083333 33.1679753,61.2675 L33.1679753,61.2675 Z M21.002479,53.4316667 C21.8512346,53.3758333 22.630721,53.225 23.2691654,52.9416667 C26.1951605,51.6441667 26.4597185,51.5766667 29.1678914,52.9083333 C29.7570963,53.1983333 30.4706519,53.3575 31.2476346,53.4241667 C27.9636099,54.7125 24.2890074,54.715 21.002479,53.4316667 L21.002479,53.4316667 Z M48.2227457,39.9825 C48.0958914,40.3991667 47.4516049,40.4858333 46.9325037,40.4858333 C46.3558173,40.4858333 45.7999951,40.3683333 45.7340642,40.3525 L44.7776494,40.0141667 L44.5381284,41.0025 C44.3970864,41.5758333 44.220158,42.5008333 44.0148543,43.5975 C43.7853481,43.9608333 41.3450716,46.4475 39.1793679,50.6858333 C38.8221728,50.5516667 38.4090617,50.4408333 37.9492148,50.3825 C33.7939012,49.8583333 33.9174173,48.9325 31.9603556,47.835 C30.8420346,47.21 28.838237,47.0766667 26.2060099,47.8416667 C24.0812,47.1291667 21.8120099,47.1183333 20.7120494,47.7341667 C19.2557284,48.55 17.6082914,49.7441667 16.0526568,50.2208333 C15.9199605,50.18 15.772242,50.2075 15.6654173,50.31 C15.2648247,50.4 14.8692395,50.4533333 14.4895111,50.4141667 C13.8143457,50.5008333 13.2176296,50.7166667 12.761121,50.9633333 C9.42785679,45.8475 7.69279012,44.0616667 7.7194963,43.9133333 C7.50167407,42.7025 7.3164,41.6733333 7.16367407,41.01 L6.89077037,39.8983333 L5.85590617,40.4 C5.8500642,40.4033333 5.35766914,40.6325 4.79850864,40.6325 C4.21013827,40.6325 3.80203457,40.375 3.51077037,39.825 C3.08764444,39.0225 2.31066173,33.7175 2.29230123,32.6466667 C2.27894815,31.9058333 2.51763457,31.2958333 3.02338272,30.7808333 C3.18195062,30.62 3.36472099,30.4808333 3.55583704,30.3508333 C3.8713037,33.135 4.37705185,35.1583333 4.73925432,35.695 C5.23916049,36.4308333 5.49537284,37.1475 6.5753037,35.1425 C7.25046914,33.8875 7.34060247,31.93 7.43157037,29.7541667 L7.83466667,28.6516667 C8.1484642,27.3283333 8.09254815,26.0041667 7.89809383,24.6966667 C8.02661728,24.0166667 8.18351605,23.3433333 8.41051852,22.7016667 C9.76669136,18.8566667 11.4416691,22.8833333 17.8594963,16.4816667 C19.3533728,14.9908333 20.0143506,13.3316667 20.1478815,11.7091667 C24.8423259,14.3725 30.4214123,16.7466667 33.4742617,16.7466667 C35.3946025,16.7466667 41.0763407,19.2983333 42.9240741,22.8841667 C43.335516,23.6833333 43.6050815,24.5308333 43.783679,25.3966667 C43.7144099,26.4591667 43.7544691,27.5483333 44.0206963,28.6733333 L44.127521,29.1208333 C44.164242,31.5508333 44.011516,33.7891667 44.7584543,35.1591667 C45.8392198,37.1375 46.0962667,36.4308333 46.5936691,35.7058333 C46.9842469,35.1366667 47.4941679,32.995 47.7587259,30.0808333 C48.5866173,30.5633333 49.3085185,31.3691667 49.4086667,32.7291667 C49.4670864,33.5458333 48.5624148,38.8816667 48.2227457,39.9825 L48.2227457,39.9825 Z" id="Shape"></path>
                            </g>
                        </g>
                    </g>
                </g>
            </g>
        </g>
    </g>
</svg>